<svg width="50" height="41" xmlns="http://www.w3.org/2000/svg">

 <g>
  <title>background</title>
  <rect fill="none" id="canvas_background" height="43" width="52" y="-1" x="-1"/>
 </g>
 <g>
  <title>Layer 1</title>
  <g stroke="null" id="svg_1">
   <g stroke="null" id="svg_2">
    <g stroke="null" id="svg_3">
     <polygon stroke="null" id="svg_4" points="26.898515701293945,25.905879378318787 34.492652893066406,11.490262389183044 34.492652893066406,7.886343359947205 23.101398468017578,7.886343359947205 23.101398468017578,11.490262389183044 30.695627212524414,11.490262389183044 23.101398468017578,25.905879378318787 "/>
     <path stroke="null" id="svg_5" d="m7.913115,7.886337l-3.797115,0l0,28.831168c0,1.991126 1.699166,3.603928 3.797115,3.603928l30.376656,0l0,-3.603928l-30.376656,0l0,-28.831168z"/>
     <path stroke="null" id="svg_6" d="m42.086885,0.678566l-26.579629,0c-2.09786,0 -3.797115,1.612717 -3.797115,3.603928l0,25.227325c0,1.991126 1.699255,3.603843 3.797115,3.603843l26.579629,0c2.09786,0 3.797115,-1.612717 3.797115,-3.603928l0,-25.227241c-0.000089,-1.991211 -1.699255,-3.603928 -3.797115,-3.603928zm0,28.831168l-26.579629,0l0,-25.227241l26.579629,0l0,25.227241z"/>
    </g>
   </g>
  </g>
  <g id="svg_7"/>
  <g id="svg_8"/>
  <g id="svg_9"/>
  <g id="svg_10"/>
  <g id="svg_11"/>
  <g id="svg_12"/>
  <g id="svg_13"/>
  <g id="svg_14"/>
  <g id="svg_15"/>
  <g id="svg_16"/>
  <g id="svg_17"/>
  <g id="svg_18"/>
  <g id="svg_19"/>
  <g id="svg_20"/>
  <g id="svg_21"/>
 </g>
</svg>