<svg width="100" height="40" xmlns="http://www.w3.org/2000/svg" class="logo">

 <g>
  <title>background</title>
  <rect fill="none" id="canvas_background" height="42" width="102" y="-1" x="-1"/>
 </g>
 <g>
  <title>Layer 1</title>
  <g id="logo">
   <path id="Sleek" d="m1.588035,-11.219026c0,-0.564 0.111,-1.059 0.333,-1.485c0.222,-0.426 0.516,-0.78 0.882,-1.062c0.366,-0.282 0.792,-0.495 1.278,-0.639c0.486,-0.144 0.987,-0.216 1.503,-0.216c0.804,0 1.566,0.153 2.286,0.459c0.72,0.306 1.32,0.753 1.8,1.341l-1.368,1.296c-0.276,-0.42 -0.663,-0.75 -1.161,-0.99c-0.498,-0.24 -1.017,-0.36 -1.557,-0.36c-0.648,0 -1.134,0.135 -1.458,0.405c-0.324,0.27 -0.486,0.645 -0.486,1.125c0,0.288 0.063,0.54 0.189,0.756c0.126,0.216 0.297,0.405 0.513,0.567c0.216,0.162 0.468,0.306 0.756,0.432c0.288,0.126 0.588,0.255 0.9,0.387c0.408,0.168 0.822,0.348 1.242,0.54c0.42,0.192 0.798,0.432 1.134,0.72c0.336,0.288 0.612,0.642 0.828,1.062c0.216,0.42 0.324,0.942 0.324,1.566c0,0.66 -0.114,1.221 -0.342,1.683c-0.228,0.462 -0.537,0.84 -0.927,1.134c-0.39,0.294 -0.843,0.507 -1.359,0.639c-0.516,0.132 -1.056,0.198 -1.62,0.198c-0.96001,0 -1.821,-0.186 -2.583,-0.558c-0.762,-0.372 -1.425,-0.954 -1.989,-1.746l1.422,-1.188c0.108,0.18 0.264,0.375 0.468,0.585c0.204,0.21 0.441,0.405 0.711,0.585c0.27,0.18 0.57,0.33 0.9,0.45c0.33,0.12 0.687,0.18 1.071,0.18c0.42,0 0.771,-0.048 1.053,-0.144c0.282,-0.096 0.507,-0.228 0.675,-0.396c0.168,-0.168 0.288,-0.363 0.36,-0.585c0.072,-0.222 0.108,-0.459 0.108,-0.711c0,-0.312 -0.069,-0.585 -0.207,-0.819c-0.138,-0.234 -0.321,-0.441 -0.549,-0.621c-0.228,-0.18 -0.492,-0.342 -0.792,-0.486c-0.3,-0.144 -0.612,-0.288 -0.936,-0.432c-0.396,-0.168 -0.798,-0.348 -1.206,-0.54c-0.408,-0.192 -0.774,-0.426 -1.098,-0.702c-0.324,-0.276 -0.588,-0.609 -0.792,-0.999c-0.204,-0.39 -0.306,-0.867 -0.306,-1.431zm12.51,-3.888l0,13.176l-2.07,0l0,-13.176l2.07,0zm4.608,9.54c0.084,0.828 0.345,1.431 0.783,1.809c0.438,0.378 1.041,0.567 1.809,0.567c0.492,0 0.975,-0.078 1.449,-0.234c0.474,-0.156 0.885,-0.372 1.233,-0.648l0.828,1.278c-0.54,0.36 -1.128,0.633 -1.764,0.819c-0.636,0.186 -1.272,0.279 -1.908,0.279c-0.612,0 -1.191,-0.093 -1.737,-0.279c-0.546,-0.186 -1.026,-0.465 -1.44,-0.837c-0.414,-0.372 -0.744,-0.84 -0.99,-1.404c-0.246,-0.564 -0.369,-1.23 -0.369,-1.998c0,-0.636 0.111,-1.224 0.333,-1.764c0.222,-0.54 0.531,-1.005 0.927,-1.395c0.396,-0.39 0.861,-0.696 1.395,-0.918c0.534,-0.222 1.107,-0.333 1.719,-0.333c0.588,0 1.128,0.093 1.62,0.279c0.492,0.186 0.918,0.459 1.278,0.819c0.36,0.36 0.642,0.807 0.846,1.341c0.204,0.534 0.306,1.149 0.306,1.845c0,0.132 -0.003,0.252 -0.009,0.36c-0.006,0.108 -0.015,0.228 -0.027,0.36l-6.282,0.054zm2.268,-3.618c-0.648,0 -1.182,0.21 -1.602,0.63c-0.42,0.42 -0.642,0.972 -0.666,1.656l4.338,0c-0.024,-0.684 -0.207,-1.236 -0.549,-1.656c-0.342,-0.42 -0.849,-0.63 -1.521,-0.63zm8.136,3.618c0.084,0.828 0.345,1.431 0.783,1.809c0.438,0.378 1.041,0.567 1.809,0.567c0.492,0 0.975,-0.078 1.449,-0.234c0.474,-0.156 0.885,-0.372 1.233,-0.648l0.828,1.278c-0.54,0.36 -1.128,0.633 -1.764,0.819c-0.636,0.186 -1.272,0.279 -1.908,0.279c-0.612,0 -1.191,-0.093 -1.737,-0.279c-0.546,-0.186 -1.026,-0.465 -1.44,-0.837c-0.414,-0.372 -0.744,-0.84 -0.99,-1.404c-0.246,-0.564 -0.369,-1.23 -0.369,-1.998c0,-0.636 0.111,-1.224 0.333,-1.764c0.222,-0.54 0.531,-1.005 0.927,-1.395c0.396,-0.39 0.861,-0.696 1.395,-0.918c0.534,-0.222 1.107,-0.333 1.719,-0.333c0.588,0 1.128,0.093 1.62,0.279c0.492,0.186 0.918,0.459 1.278,0.819c0.36,0.36 0.642,0.807 0.846,1.341c0.204,0.534 0.306,1.149 0.306,1.845c0,0.132 -0.003,0.252 -0.009,0.36c-0.006,0.108 -0.015,0.228 -0.027,0.36l-6.282,0.054zm2.268,-3.618c-0.648,0 -1.182,0.21 -1.602,0.63c-0.42,0.42 -0.642,0.972 -0.666,1.656l4.338,0c-0.024,-0.684 -0.207,-1.236 -0.549,-1.656c-0.342,-0.42 -0.849,-0.63 -1.521,-0.63zm8.586,-5.922l0,7.974l3.546,-3.33l2.538,0l-4.14,4.05l4.356,4.482l-2.592,0l-3.708,-3.888l0,3.888l-2.07,0l0,-13.176l2.07,0z"/>
  </g>
  <rect stroke="#000" id="svg_1" height="36.551703" width="96.827529" y="1.724148" x="1.586235" stroke-width="2.5" fill="#fff"/>
  <text font-weight="normal" stroke="#000" transform="matrix(2.9103452910770273,0,0,3.0833967976964574,-33.49053070710554,-9.55725067764697) " xml:space="preserve" text-anchor="start" font-family="Helvetica, Arial, sans-serif" font-size="10" id="svg_2" y="13.056788" x="14.232991" fill-opacity="null" stroke-opacity="null" stroke-width="0.3" fill="#000000">Se7en</text>
 </g>
</svg>